<?xml version="1.0" encoding="UTF-8"?>
<svg version="1.1" xmlns="http://www.w3.org/2000/svg" width="512" height="512">
<path d="M0 0 C0.75050629 0.00215515 1.50101257 0.0043103 2.27426147 0.00653076 C13.53958507 0.05840946 24.35667618 0.53390374 35.3125 3.3125 C36.1183252 3.50585938 36.92415039 3.69921875 37.75439453 3.8984375 C61.851556 9.77867122 85.18104856 20.51720615 103.67578125 37.33203125 C104.24941406 37.84596436 104.82304687 38.35989746 105.4140625 38.8894043 C106.533753 39.90252608 107.63756966 40.93354274 108.72265625 41.98364258 C110.42133113 43.59949135 110.42133113 43.59949135 113.3125 45.3125 C116.35995244 44.9248652 116.35995244 44.9248652 119.3125 43.3125 C120.47265625 42.838125 121.6328125 42.36375 122.828125 41.875 C124.68758577 41.09989846 126.54429814 40.32033961 128.39453125 39.5234375 C145.76650561 32.34253787 168.82892046 32.68400765 186.3125 39.3125 C208.89654487 48.69048267 225.61602292 64.07387219 235.6875 86.375 C244.04826539 107.1495334 243.44312262 128.10054574 237.3125 149.3125 C237.92996094 149.78558594 238.54742187 150.25867188 239.18359375 150.74609375 C259.74953525 166.80443163 272.85557941 187.50914991 277.3125 213.3125 C278.08988472 226.93675611 278.574622 241.21678643 274.3125 254.3125 C273.9721875 255.37726563 273.631875 256.44203125 273.28125 257.5390625 C264.2127371 283.21275782 245.85279166 302.71272721 221.40234375 314.40771484 C209.51770451 319.55309721 197.38543553 321.45601518 184.52734375 321.50537109 C183.34616974 321.51354858 182.16499573 321.52172607 180.94802856 321.53015137 C177.04869928 321.55491735 173.14937769 321.57165458 169.25 321.5859375 C167.90355423 321.59130185 166.55710851 321.59667937 165.21066284 321.60206985 C159.61048815 321.62366799 154.01031618 321.64240557 148.41011047 321.65369225 C140.40082568 321.66994574 132.39202466 321.70319173 124.38292217 321.76009309 C118.74029126 321.79881014 113.09778973 321.81832644 107.45502949 321.82361281 C104.08892938 321.82726136 100.72334712 321.83923004 97.35739136 321.87171555 C93.60376894 321.90325008 89.85137575 321.90342115 86.09765625 321.89599609 C84.43296799 321.9206041 84.43296799 321.9206041 82.73464966 321.94570923 C74.32678591 321.87754784 74.32678591 321.87754784 70.57592773 319.08853149 C68.3125 316.3125 68.3125 316.3125 68.3125 311.3125 C60.3925 311.3125 52.4725 311.3125 44.3125 311.3125 C43.6525 313.2925 42.9925 315.2725 42.3125 317.3125 C40.75 319.6875 40.75 319.6875 38.3125 321.3125 C33.7736718 322.14546847 30.38427305 321.89304374 26.3125 319.6875 C24.3125 317.3125 24.3125 317.3125 23.3125 311.3125 C14.7325 311.3125 6.1525 311.3125 -2.6875 311.3125 C-3.0175 313.2925 -3.3475 315.2725 -3.6875 317.3125 C-6.325585 320.19831543 -7.95210512 321.19440739 -11.82208824 321.81586456 C-13.60003997 321.81812672 -13.60003997 321.81812672 -15.41390991 321.82043457 C-16.40899675 321.82979451 -16.40899675 321.82979451 -17.42418635 321.83934355 C-19.6404149 321.85525904 -21.85554124 321.84267562 -24.07177734 321.83007812 C-25.66392659 321.83550045 -27.25607082 321.84262374 -28.84820557 321.85131836 C-33.17121789 321.86955642 -37.49384834 321.86247837 -41.81686735 321.84980202 C-46.35290763 321.83965922 -50.88891568 321.84907288 -55.42495728 321.85534668 C-63.0530583 321.86262679 -70.68100452 321.85303363 -78.30908203 321.83398438 C-87.09598307 321.8122929 -95.88251169 321.81920903 -104.66940343 321.84129 C-112.23234094 321.85952719 -119.79516718 321.86195959 -127.35811961 321.85153532 C-131.86622297 321.84533578 -136.37415231 321.84436461 -140.88224411 321.85768127 C-145.13250838 321.86935791 -149.38230089 321.86100199 -153.63251495 321.83810425 C-155.18071591 321.83287611 -156.72895752 321.83422789 -158.27714157 321.84315491 C-178.60457183 321.94942548 -196.36838727 316.08311036 -211.6875 302.3125 C-212.60402344 301.53519531 -212.60402344 301.53519531 -213.5390625 300.7421875 C-225.43215956 289.93521802 -233.66447783 272.59232519 -234.89282227 256.6472168 C-235.64637354 234.64005059 -231.8997448 215.0557416 -216.6875 198.3125 C-216.03394531 197.56742188 -215.38039062 196.82234375 -214.70703125 196.0546875 C-200.20220271 180.4666204 -181.27779732 174.52182194 -160.6875 173.3125 C-160.73970703 171.34796875 -160.73970703 171.34796875 -160.79296875 169.34375 C-161.30288416 141.56881202 -157.00701489 115.35459571 -144.6875 90.3125 C-144.38086426 89.68150391 -144.07422852 89.05050781 -143.75830078 88.40039062 C-137.41366647 75.49404276 -129.52602455 64.00840985 -119.70703125 53.484375 C-117.93665862 51.58045395 -116.27364232 49.63358849 -114.625 47.625 C-87.16292301 15.64759498 -41.04514071 -0.2124425 0 0 Z " fill="#A9E5FE" transform="translate(234.6875,37.6875)"/>
<path d="M0 0 C0.75050629 0.00215515 1.50101257 0.0043103 2.27426147 0.00653076 C13.53958507 0.05840946 24.35667618 0.53390374 35.3125 3.3125 C36.1183252 3.50585938 36.92415039 3.69921875 37.75439453 3.8984375 C61.851556 9.77867122 85.18104856 20.51720615 103.67578125 37.33203125 C104.24941406 37.84596436 104.82304687 38.35989746 105.4140625 38.8894043 C106.533753 39.90252608 107.63756966 40.93354274 108.72265625 41.98364258 C110.42133113 43.59949135 110.42133113 43.59949135 113.3125 45.3125 C116.35995244 44.9248652 116.35995244 44.9248652 119.3125 43.3125 C120.47265625 42.838125 121.6328125 42.36375 122.828125 41.875 C124.68758577 41.09989846 126.54429814 40.32033961 128.39453125 39.5234375 C145.76650561 32.34253787 168.82892046 32.68400765 186.3125 39.3125 C208.89654487 48.69048267 225.61602292 64.07387219 235.6875 86.375 C244.04826539 107.1495334 243.44312262 128.10054574 237.3125 149.3125 C237.92996094 149.78558594 238.54742187 150.25867188 239.18359375 150.74609375 C259.74953525 166.80443163 272.85557941 187.50914991 277.3125 213.3125 C278.08988472 226.93675611 278.574622 241.21678643 274.3125 254.3125 C273.9721875 255.37726563 273.631875 256.44203125 273.28125 257.5390625 C264.2127371 283.21275782 245.85279166 302.71272721 221.40234375 314.40771484 C209.51770451 319.55309721 197.38543553 321.45601518 184.52734375 321.50537109 C183.34616974 321.51354858 182.16499573 321.52172607 180.94802856 321.53015137 C177.04869928 321.55491735 173.14937769 321.57165458 169.25 321.5859375 C167.90355423 321.59130185 166.55710851 321.59667937 165.21066284 321.60206985 C159.61048815 321.62366799 154.01031618 321.64240557 148.41011047 321.65369225 C140.40082568 321.66994574 132.39202466 321.70319173 124.38292217 321.76009309 C118.74029126 321.79881014 113.09778973 321.81832644 107.45502949 321.82361281 C104.08892938 321.82726136 100.72334712 321.83923004 97.35739136 321.87171555 C93.60376894 321.90325008 89.85137575 321.90342115 86.09765625 321.89599609 C84.43296799 321.9206041 84.43296799 321.9206041 82.73464966 321.94570923 C74.33034482 321.87757669 74.33034482 321.87757669 70.61108398 318.99087524 C68.3125 316.3125 68.3125 316.3125 67.75 312.875 C68.34811122 309.08696227 69.2775082 306.55341286 71.3125 303.3125 C74.51642184 301.17655211 75.32263959 301.06241613 79.00064087 301.0609436 C79.96465317 301.05556076 80.92866547 301.05017792 81.92189026 301.04463196 C83.50670448 301.05081795 83.50670448 301.05081795 85.12353516 301.05712891 C86.23783401 301.05350845 87.35213287 301.049888 88.50019836 301.04615784 C90.92612513 301.0392536 93.35206747 301.03676031 95.77800369 301.03810501 C99.63078525 301.03906982 103.48328742 301.02612863 107.33602905 301.00912476 C118.29300777 300.96286864 129.2499585 300.93820963 140.20703125 300.93164062 C146.90852724 300.92745337 153.60969601 300.9021689 160.31110764 300.86631393 C162.85367476 300.85657945 165.39628169 300.85414887 167.93886185 300.85948563 C184.74245671 300.89306586 201.59484373 300.83104909 216.75 292.5625 C217.73226562 292.04707642 217.73226562 292.04707642 218.734375 291.52124023 C237.30971295 281.46646842 248.19698042 265.2997605 254.40234375 245.58984375 C259.90462401 225.77691182 255.41579098 206.08908943 245.71875 188.40625 C235.57082748 171.36539898 219.36171803 161.28652258 200.6015625 155.890625 C199.84617187 155.69984375 199.09078125 155.5090625 198.3125 155.3125 C197.59578125 155.12816406 196.8790625 154.94382813 196.140625 154.75390625 C182.10613918 152.56344092 167.70735781 153.89430716 154.62890625 159.453125 C151.20347858 160.72394134 148.81015607 160.20281245 145.3125 159.3125 C141.95873425 156.9868045 140.99962704 154.78448003 140.1875 150.92578125 C139.88193753 149.16120415 139.59106532 147.39403989 139.3125 145.625 C138.9777306 143.71961643 138.64045747 141.81467119 138.30078125 139.91015625 C138.13529785 138.96285645 137.96981445 138.01555664 137.79931641 137.03955078 C132.61895886 108.02019579 119.50726323 83.74597547 99.3125 62.3125 C98.48878906 61.40951172 98.48878906 61.40951172 97.6484375 60.48828125 C76.3318642 37.96411882 41.73145761 22.36504391 10.76367188 21.17626953 C-3.37579342 19.90362956 -3.37579342 19.90362956 -16.6875 22.3125 C-18.64350715 22.56073944 -20.60250019 22.78555296 -22.5625 23 C-49.21611651 26.73750815 -76.51222418 39.47663617 -95.375 58.9375 C-96.138125 59.72125 -96.90125 60.505 -97.6875 61.3125 C-98.3475 61.3125 -99.0075 61.3125 -99.6875 61.3125 C-100.05875 62.16908203 -100.05875 62.16908203 -100.4375 63.04296875 C-101.88315697 65.66773969 -103.60424416 67.47106226 -105.6875 69.625 C-128.62330924 94.87273881 -139.20239139 127.98767195 -138.8125 161.625 C-138.80243778 163.15559302 -138.79331773 164.68619254 -138.78515625 166.21679688 C-138.76342788 169.9155027 -138.72908181 173.61395769 -138.6875 177.3125 C-137.89811035 177.62485596 -137.1087207 177.93721191 -136.29541016 178.2590332 C-117.13350818 186.00904263 -102.06901395 199.28345664 -93.34375 218.23046875 C-92.32598679 220.90209717 -91.47381156 223.56438083 -90.6875 226.3125 C-90.39101562 227.26640625 -90.09453125 228.2203125 -89.7890625 229.203125 C-87.74363651 236.37149864 -86.42171342 243.88721651 -87.6875 251.3125 C-89.49958216 253.99527462 -90.77852702 255.85801351 -93.6875 257.3125 C-100.81980769 258.01403846 -100.81980769 258.01403846 -104.625 254.9375 C-107.48785785 251.29386274 -107.79080883 249.4918906 -108 244.9375 C-109.0581483 231.70274968 -114.72617184 217.95001297 -124.70703125 208.89453125 C-137.68443674 198.52796474 -152.19336934 193.65722648 -168.74804688 195.06445312 C-173.70792943 195.69879863 -178.15237521 197.26698377 -182.6875 199.3125 C-183.47382813 199.663125 -184.26015625 200.01375 -185.0703125 200.375 C-197.76145332 206.74268041 -207.003855 218.00108789 -211.6875 231.3125 C-216.15581616 244.80228993 -214.35036529 258.5747689 -208.6875 271.3125 C-206.93364243 274.55219938 -204.97549775 277.43044627 -202.6875 280.3125 C-202.23761719 280.92351562 -201.78773438 281.53453125 -201.32421875 282.1640625 C-193.7561438 291.84267102 -181.74539093 298.34413188 -169.6875 300.3125 C-164.52075222 300.60180282 -159.35958819 300.57269925 -154.18701172 300.55200195 C-152.61923125 300.55311614 -151.05145122 300.55517598 -149.4836731 300.55810547 C-146.12032615 300.56281121 -142.75704913 300.56172496 -139.39370346 300.55632973 C-134.07338204 300.54869748 -128.75319431 300.55939959 -123.43289185 300.5735321 C-108.30860843 300.61121137 -93.1843869 300.62944599 -78.06005859 300.61791992 C-69.69726266 300.61170393 -61.33468367 300.62327744 -52.97194111 300.65436524 C-47.68470526 300.67301295 -42.39808431 300.66970878 -37.11085868 300.65019763 C-33.82178368 300.64331372 -30.53304198 300.65727615 -27.24403 300.67714691 C-25.72106808 300.6821915 -24.19805005 300.67871608 -22.67513275 300.66601372 C-9.73425533 300.56575918 -9.73425533 300.56575918 -5.79397583 303.70915222 C-3.09091866 307.04980194 -2.65700188 308.98343126 -2.44140625 313.15625 C-2.81844851 316.45985835 -4.28468224 318.11563804 -6.6875 320.3125 C-9.51604599 321.72677299 -11.88865856 321.44828834 -15.05314636 321.45967102 C-15.71397431 321.46334771 -16.37480226 321.4670244 -17.0556553 321.4708125 C-19.28084502 321.48186786 -21.50598807 321.48569647 -23.73120117 321.48950195 C-25.32290292 321.49576578 -26.91460321 321.50241251 -28.50630188 321.50941467 C-33.74768043 321.5304872 -38.98905934 321.54082786 -44.23046875 321.55078125 C-46.03732125 321.55482922 -47.84417359 321.55894615 -49.65102577 321.56313133 C-58.14970595 321.58219901 -66.64837741 321.59642027 -75.14707488 321.6047433 C-84.93460514 321.61448757 -94.72190755 321.64072655 -104.50935763 321.68124419 C-112.08494313 321.71151957 -119.66046383 321.72622341 -127.2361086 321.72952431 C-131.75435792 321.73186408 -136.27236431 321.74068169 -140.79054832 321.76598549 C-145.05302751 321.78946823 -149.31510742 321.79341941 -153.57763481 321.78322411 C-155.13069242 321.78273331 -156.68377101 321.78891679 -158.23676682 321.80278015 C-178.58575284 321.97405739 -196.3539915 316.09605097 -211.6875 302.3125 C-212.60402344 301.53519531 -212.60402344 301.53519531 -213.5390625 300.7421875 C-225.43215956 289.93521802 -233.66447783 272.59232519 -234.89282227 256.6472168 C-235.64637354 234.64005059 -231.8997448 215.0557416 -216.6875 198.3125 C-216.03394531 197.56742188 -215.38039062 196.82234375 -214.70703125 196.0546875 C-200.20220271 180.4666204 -181.27779732 174.52182194 -160.6875 173.3125 C-160.73970703 171.34796875 -160.73970703 171.34796875 -160.79296875 169.34375 C-161.30288416 141.56881202 -157.00701489 115.35459571 -144.6875 90.3125 C-144.38086426 89.68150391 -144.07422852 89.05050781 -143.75830078 88.40039062 C-137.41366647 75.49404276 -129.52602455 64.00840985 -119.70703125 53.484375 C-117.93665862 51.58045395 -116.27364232 49.63358849 -114.625 47.625 C-87.16292301 15.64759498 -41.04514071 -0.2124425 0 0 Z " fill="#000101" transform="translate(234.6875,37.6875)"/>
<path d="M0 0 C13.96985021 10.03015144 24.2512633 24.06907289 28.28515625 40.9765625 C29.73712462 51.02154369 30.32831954 64.72226716 25.71484375 73.94921875 C21.11360522 73.39707013 17.09560289 72.4094718 12.71484375 70.94921875 C5.13531606 68.983121 -2.17016635 68.64318651 -9.97265625 68.69921875 C-11.06126953 68.69148438 -12.14988281 68.68375 -13.27148438 68.67578125 C-19.06217031 68.68986195 -23.79428006 69.17296612 -29.28515625 70.94921875 C-32.22265625 71.07421875 -32.22265625 71.07421875 -34.28515625 70.94921875 C-34.51589844 69.75167969 -34.74664062 68.55414063 -34.984375 67.3203125 C-39.54561138 44.25675676 -47.60367738 23.15240887 -61.25390625 3.8828125 C-62.83651405 1.59716162 -64.14959967 -0.52663647 -65.28515625 -3.05078125 C-63.45506758 -3.84991997 -61.62088659 -4.6396888 -59.78515625 -5.42578125 C-58.76421875 -5.86664063 -57.74328125 -6.3075 -56.69140625 -6.76171875 C-37.83669706 -13.89710181 -16.88353024 -10.67669059 0 0 Z " fill="#E4A845" transform="translate(427.28515625,103.05078125)"/>
<path d="M0 0 C2.91237762 0.98886519 5.51271 2.36675796 8.1875 3.875 C8.92508545 4.28065186 9.6626709 4.68630371 10.42260742 5.10424805 C36.84442354 20.02564361 55.98069641 44.57841032 64.2578125 73.8046875 C65.57938138 79.49438932 66.40566455 85.19269821 67 91 C67.09667969 91.80824219 67.19335938 92.61648437 67.29296875 93.44921875 C67.54920796 97.0850454 67.02536992 99.51860291 64.9375 102.4375 C61.4059129 105.5182462 59.66893947 106.16382244 55 106 C51.67490379 104.36882073 49.60336812 103.19588429 47.9140625 99.84765625 C46.77576587 96.30142443 46.23821993 92.73327607 45.6875 89.0625 C41.93661195 66.20968468 30.26596208 45.31909358 11.8828125 31.01171875 C7.50828917 27.95903648 2.88788888 25.40768215 -1.7734375 22.82421875 C-11.27341772 17.45316456 -11.27341772 17.45316456 -13 14 C-13.65157772 9.26209912 -13.65620107 6.00480788 -11 1.9375 C-7.25315029 -0.48234044 -4.30245079 -0.60138167 0 0 Z " fill="#020303" transform="translate(279,92)"/>
<path d="M0 0 C2.87029869 1.79393668 4.49131638 2.98263276 6 6 C6.72682257 9.18156295 6.68939908 11.80830165 6 15 C4.28469849 17.35292053 4.28469849 17.35292053 2.02001953 19.73852539 C0.79052582 21.04577072 0.79052582 21.04577072 -0.46380615 22.37942505 C-1.30075012 23.24421478 -2.13769409 24.10900452 -3 25 C-3.73559143 25.76851288 -4.47118286 26.53702576 -5.22906494 27.3288269 C-7.45151107 29.63038489 -9.69389799 31.9103764 -11.9453125 34.18359375 C-12.75942596 35.00577896 -13.57353943 35.82796417 -14.412323 36.67506409 C-16.11669026 38.3931362 -17.82252559 40.10975313 -19.52978516 41.82495117 C-21.26797862 43.5747544 -23.00167247 45.32903829 -24.73095703 47.08764648 C-27.25101986 49.65030527 -29.78400766 52.19952091 -32.3203125 54.74609375 C-33.08715363 55.53044296 -33.85399475 56.31479218 -34.64407349 57.12290955 C-38.84624301 61.30826623 -42.26670447 64.29335888 -48 66 C-51.86255923 65.41079605 -54.23642988 64.56263061 -57.375 62.25 C-59.47283063 59.34531144 -59.92962285 57.58923478 -60 54 C-57.85877637 46.49669529 -52.40451704 41.87642599 -46.96875 36.54296875 C-45.97051047 35.54965989 -44.97308672 34.55553061 -43.97644043 33.56062317 C-41.89440122 31.48619361 -39.80610464 29.41836952 -37.71240234 27.35571289 C-35.03054391 24.71355621 -32.35968279 22.06062731 -29.69277191 19.40339184 C-27.14244579 16.86303933 -24.58720119 14.32765975 -22.03125 11.79296875 C-21.5455101 11.3106246 -21.0597702 10.82828045 -20.55931091 10.33131981 C-19.1835046 8.96710579 -17.80375344 7.60687361 -16.42382812 6.24682617 C-15.64011841 5.47296066 -14.85640869 4.69909515 -14.0489502 3.90177917 C-9.50578379 -0.31506284 -5.9869758 -0.88229117 0 0 Z " fill="#000000" transform="translate(378,431)"/>
<path d="M0 0 C3.67080764 2.52368025 4.75864984 4.17035883 6 8.4375 C6 14.63948393 2.87772816 18.49664994 -1.36035156 22.7644043 C-2.23846497 23.65520187 -3.11657837 24.54599945 -4.02130127 25.46379089 C-4.97728631 26.41772425 -5.93373922 27.37118893 -6.890625 28.32421875 C-7.87884372 29.31700465 -8.86669166 30.31015975 -9.85418701 31.30366516 C-11.92042135 33.37880816 -13.99220108 35.4482127 -16.06787109 37.51391602 C-18.71700458 40.15156114 -21.34994992 42.80472632 -23.97870255 45.4626646 C-26.01350478 47.51588037 -28.0576116 49.55963296 -30.10448456 51.6008091 C-31.07870896 52.57488092 -32.04986709 53.55203021 -33.01776886 54.53238487 C-42.62195251 64.24264867 -42.62195251 64.24264867 -49 66 C-53.13716835 65.43902802 -55.29324208 64.61614793 -58.4375 61.875 C-60.47199822 58.13152328 -61.12029304 55.09496246 -60 51 C-58.74617004 49.19029236 -58.74617004 49.19029236 -57.06958008 47.35913086 C-56.43291412 46.66270477 -55.79624817 45.96627869 -55.14028931 45.24874878 C-51.2185441 41.12826856 -47.22612552 37.08401092 -43.19921875 33.06640625 C-42.28163284 32.14786362 -41.36404694 31.22932098 -40.4186554 30.28294373 C-38.49320392 28.35603051 -36.56598693 26.43090625 -34.63745117 24.50708008 C-32.16480285 22.04017661 -29.69673681 19.56874464 -27.22993755 17.095994 C-24.86795286 14.72953879 -22.50217911 12.36688732 -20.13671875 10.00390625 C-19.25030197 9.11546524 -18.36388519 8.22702423 -17.4506073 7.31166077 C-16.63248062 6.49668625 -15.81435394 5.68171173 -14.97143555 4.84204102 C-13.8905793 3.76237816 -13.8905793 3.76237816 -12.78788757 2.66090393 C-9.05031269 -0.81121194 -4.87834197 -0.73301511 0 0 Z " fill="#000000" transform="translate(249,431)"/>
<path d="M0 0 C2.75569447 2.18159145 4.43588747 3.87177494 6 7 C6.26214543 11.90346386 5.99359626 14.62234601 3.0914917 18.64620972 C0.36879956 21.64098496 -2.45256322 24.48645545 -5.3515625 27.30859375 C-6.41092371 28.36572211 -7.46887522 29.42426485 -8.52548218 30.48414612 C-10.73761722 32.69454346 -12.96271576 34.8906721 -15.19873047 37.0769043 C-18.05564463 39.87141508 -20.88289967 42.69380789 -23.70162392 45.52677822 C-25.88142633 47.7130096 -28.07365432 49.88641807 -30.27006149 52.05595589 C-31.31700842 53.09207049 -32.36072876 54.13145649 -33.40105057 55.17422295 C-34.86038209 56.63211782 -36.33501347 58.07257617 -37.81494141 59.50952148 C-38.64909576 60.33064926 -39.48325012 61.15177704 -40.34268188 61.99778748 C-43.50978558 64.38410872 -46.11879663 65.25690354 -50 66 C-53.9366266 64.88462246 -56.23528027 63.8364122 -59 60.8125 C-60.3810357 56.92833708 -60.39076411 53.83023591 -59 50 C-54.38962546 43.58801152 -48.24666676 38.10024862 -42.671875 32.5390625 C-41.36564178 31.2313942 -41.36564178 31.2313942 -40.03302002 29.89730835 C-38.20553317 28.069145 -36.37679894 26.24222781 -34.546875 24.41650391 C-31.74102601 21.61604325 -28.94059464 18.81024391 -26.140625 16.00390625 C-24.35969583 14.22363732 -22.57845679 12.44367832 -20.796875 10.6640625 C-19.5406131 9.40476425 -19.5406131 9.40476425 -18.25897217 8.12002563 C-17.48096252 7.34516815 -16.70295288 6.57031067 -15.90136719 5.77197266 C-15.21854675 5.08994781 -14.53572632 4.40792297 -13.83221436 3.70523071 C-9.45760392 -0.3661925 -5.77230896 -1.02281264 0 0 Z " fill="#000000" transform="translate(119,431)"/>
<path d="M0 0 C3.50593361 2.24739334 3.93539265 3.75368449 5 7.8125 C5.72721386 12.22123401 3.37302843 15.47042097 1 19 C-1.04436286 21.44309026 -3.26034058 23.68188068 -5.5234375 25.921875 C-6.14723297 26.54854065 -6.77102844 27.1752063 -7.41372681 27.82086182 C-8.7262365 29.13540145 -10.04249609 30.44620666 -11.36230469 31.75341797 C-13.37272208 33.74774031 -15.36659169 35.75760544 -17.359375 37.76953125 C-18.64226819 39.05044235 -19.92609151 40.3304227 -21.2109375 41.609375 C-21.80176117 42.20627136 -22.39258484 42.80316772 -23.00131226 43.41815186 C-27.3418988 47.68637602 -31.19539842 51 -37.5625 51 C-41.7332414 49.78669341 -43.3911183 48.45293166 -46 45 C-47.50133957 40.68364874 -46.93325521 38.01017078 -45.07730103 33.89123535 C-43.07086043 30.36886668 -40.23007299 27.68205309 -37.35546875 24.859375 C-36.38435905 23.88608246 -36.38435905 23.88608246 -35.39363098 22.89312744 C-34.02920427 21.53035324 -32.65985485 20.17249178 -31.28588867 18.81933594 C-29.1921308 16.75456669 -27.11770552 14.67173899 -25.04492188 12.5859375 C-23.71204753 11.25930048 -22.37809841 9.93374224 -21.04296875 8.609375 C-20.42713425 7.99060486 -19.81129974 7.37183472 -19.17680359 6.73431396 C-13.09918146 0.78724459 -8.47856568 -2.05126589 0 0 Z " fill="#000000" transform="translate(507,38)"/>
<path d="M0 0 C2.87029869 1.79393668 4.49131638 2.98263276 6 6 C6.90904524 12.59057801 6.90904524 12.59057801 4.9230957 15.66967773 C-0.99700401 22.12721019 -7.17697831 28.32796375 -13.38110352 34.51147461 C-15.32881803 36.45377265 -17.2710593 38.4014314 -19.21289062 40.34960938 C-20.45019983 41.58625875 -21.68781868 42.82259842 -22.92578125 44.05859375 C-23.50596512 44.64080185 -24.08614899 45.22300995 -24.68391418 45.82286072 C-29.80051366 50.90947273 -29.80051366 50.90947273 -34.3125 51.25 C-38.22632394 50.984656 -39.93192479 50.36680088 -43 48 C-45.29840942 44.55238586 -45.760784 42.68747763 -45.59033203 38.6171875 C-44.84436739 35.31001591 -43.5511825 33.93078928 -41.23046875 31.47265625 C-40.41392822 30.60326416 -39.5973877 29.73387207 -38.75610352 28.83813477 C-34.27881266 24.22758412 -29.78547621 19.63695239 -25.23193359 15.1015625 C-23.60264165 13.47771638 -21.97887566 11.84847745 -20.35546875 10.21875 C-19.31282115 9.17676188 -18.2698641 8.1350833 -17.2265625 7.09375 C-16.29408691 6.16240234 -15.36161133 5.23105469 -14.40087891 4.27148438 C-9.70271886 -0.17346997 -6.26864075 -0.92379969 0 0 Z " fill="#000000" transform="translate(81,368)"/>
<path d="M0 0 C2.75569447 2.18159145 4.43588747 3.87177494 6 7 C6.59243637 12.21344006 5.12298816 15.0128385 2 19 C-0.18399135 21.4487338 -2.48523896 23.76598679 -4.8125 26.078125 C-5.78860229 27.05709747 -5.78860229 27.05709747 -6.78442383 28.05584717 C-8.15363074 29.42640867 -9.52534096 30.79447345 -10.89941406 32.16015625 C-13.00039956 34.25039752 -15.09045914 36.35113949 -17.1796875 38.453125 C-18.51498391 39.78710037 -19.85090029 41.1204555 -21.1875 42.453125 C-21.81052002 43.08019348 -22.43354004 43.70726196 -23.07543945 44.35333252 C-23.66284912 44.93443787 -24.25025879 45.51554321 -24.85546875 46.11425781 C-25.36746826 46.62466614 -25.87946777 47.13507446 -26.40698242 47.66094971 C-29.68326553 50.41491044 -31.5876114 51.00654585 -35.9375 50.9375 C-39.03238517 50.42264994 -40.2748998 49.81673347 -43 48 C-45.29693323 44.55460016 -45.9060233 42.50868535 -45.55541992 38.41625977 C-43.62509811 30.01872351 -32.05375469 21.90264293 -26.04614258 15.91577148 C-24.17085437 14.04590247 -22.30104535 12.17067101 -20.43164062 10.29492188 C-19.23990435 9.10384539 -18.04785845 7.9130786 -16.85546875 6.72265625 C-16.29715866 6.16232193 -15.73884857 5.60198761 -15.16362 5.02467346 C-10.26782699 0.15868321 -6.87872849 -1.09299313 0 0 Z " fill="#000000" transform="translate(211,368)"/>
<path d="M0 0 C3.348157 2.37161121 4.65750859 4.01533721 6 7.875 C6 14.48736345 2.6959354 18.76317502 -1.73431396 23.2901001 C-2.35308411 23.90077332 -2.97185425 24.51144653 -3.609375 25.140625 C-4.25440979 25.78948669 -4.89944458 26.43834839 -5.56402588 27.10687256 C-6.92416582 28.46972235 -8.28932179 29.82758256 -9.65917969 31.18066406 C-11.74375508 33.24381925 -13.80612608 35.32744667 -15.8671875 37.4140625 C-17.19663611 38.74086768 -18.52732512 40.06643139 -19.859375 41.390625 C-20.47004822 42.00939514 -21.08072144 42.62816528 -21.7098999 43.26568604 C-25.55914711 47.03272982 -28.84139205 49.34795696 -34 51 C-37.77447993 50.42423188 -40.23746967 49.4888015 -43.4375 47.4375 C-45.9031792 43.59104044 -45.94477419 40.41305519 -45 36 C-40.1698081 28.51733546 -32.34552944 22.19341036 -26.04614258 15.91577148 C-24.17085437 14.04590247 -22.30104535 12.17067101 -20.43164062 10.29492188 C-19.23990435 9.10384539 -18.04785845 7.9130786 -16.85546875 6.72265625 C-16.29715866 6.16232193 -15.73884857 5.60198761 -15.16362 5.02467346 C-10.2427565 0.13376534 -6.90005928 -1.04871367 0 0 Z " fill="#000000" transform="translate(341,368)"/>
<path d="M0 0 C2.87029869 1.79393668 4.49131638 2.98263276 6 6 C6.90995934 12.59720522 6.90995934 12.59720522 4.90551758 15.68725586 C-0.87541702 21.98842973 -6.89750694 28.04878696 -12.95385742 34.08422852 C-14.82914563 35.95409753 -16.69895465 37.82932899 -18.56835938 39.70507812 C-19.76009565 40.89615461 -20.95214155 42.0869214 -22.14453125 43.27734375 C-22.70284134 43.83767807 -23.26115143 44.39801239 -23.83638 44.97532654 C-28.79222372 49.90100194 -28.79222372 49.90100194 -33.8125 50.3125 C-37.13227327 50.28232024 -37.99044521 50.0060988 -40.9375 48.125 C-43.5388575 45.44481348 -44.27275141 43.65294832 -44.625 40 C-44.50738399 35.53985282 -43.23947403 33.64623004 -40.203125 30.4375 C-39.38602051 29.56867188 -38.56891602 28.69984375 -37.72705078 27.8046875 C-36.82712402 26.87914062 -35.92719727 25.95359375 -35 25 C-34.53478943 24.52079102 -34.06957886 24.04158203 -33.590271 23.54785156 C-30.63857394 20.51587115 -27.65751572 17.51462749 -24.65917969 14.52880859 C-23.10231276 12.97739219 -21.55098142 11.42057932 -20 9.86328125 C-19.00292534 8.86686601 -18.00554126 7.87076028 -17.0078125 6.875 C-16.11723145 5.98554688 -15.22665039 5.09609375 -14.30908203 4.1796875 C-9.65581668 -0.21282181 -6.1957376 -0.91305607 0 0 Z " fill="#000000" transform="translate(470,368)"/>
<path d="M0 0 C3.7962763 4.96436131 2.84518956 11.47168576 2.875 17.4375 C2.895625 18.45779297 2.91625 19.47808594 2.9375 20.52929688 C2.96847744 26.51956018 2.58669674 30.8692312 -0.375 36.125 C-3.08486468 38.39542717 -4.82683064 39.04335776 -8.3125 39.5625 C-12.1874426 39.00893677 -14.32925348 37.53326469 -17.375 35.125 C-19.56911207 30.73677587 -18.68451422 24.87800122 -18.72509766 20.00415039 C-18.74164004 18.54825842 -18.76890836 17.0924471 -18.80712891 15.63696289 C-18.86208123 13.53228877 -18.88379616 11.42951493 -18.8984375 9.32421875 C-18.91825684 8.06440186 -18.93807617 6.80458496 -18.95849609 5.5065918 C-18.22310487 1.24470734 -16.6752421 -0.18236907 -13.375 -2.875 C-8.80909946 -5.15795027 -3.75945679 -2.96799221 0 0 Z " fill="#000000" transform="translate(400.375,18.875)"/>
<path d="M0 0 C3.375 1.875 3.375 1.875 5 5 C5.93834525 9.93440172 5.70239262 13.64924496 3.375 18.125 C-2.04907782 21.13837657 -7.94516223 21.01614754 -14 20 C-16.72638 18.1885872 -18.53247269 16.93505462 -20 14 C-20.5811138 6.91041162 -20.5811138 6.91041162 -18.125 3.0625 C-13.23239968 -1.68620031 -6.42493956 -0.62392477 0 0 Z " fill="#000000" transform="translate(507,147)"/>
<path d="M0 0 C3.70731245 1.97723331 5.26045627 3.95353437 6.5 7.875 C7.14566257 11.1093471 6.96544275 12.09821533 5.8125 15.375 C4 18 4 18 1 20 C-3.46815491 20.71959049 -7.00337453 20.53983879 -11 18.375 C-13.47018684 15.44165313 -13.92356654 13.82167321 -14 10 C-13.25795509 6.28977544 -12.38041535 4.41302238 -9.8125 1.625 C-6.19762785 -0.4635928 -4.11789082 -0.58827012 0 0 Z " fill="#020303" transform="translate(272,339)"/>
<path d="M0 0 C2.8100346 1.79363911 4.50940468 3.01880935 6 6 C6.39447548 10.18144011 6.45035186 12.30946048 4.125 15.875 C1.19961143 18.80038857 0.42659437 18.96503325 -3.8125 19.3125 C-7.13227327 19.28232024 -7.99044521 19.0060988 -10.9375 17.125 C-13.5910687 14.39102013 -13.95036258 13.52615669 -14.3125 9.6875 C-13.95124058 5.42463889 -12.98007946 3.98007946 -10 1 C-6.79826746 -0.60086627 -3.47422941 -0.49917089 0 0 Z " fill="#040506" transform="translate(239,84)"/>
</svg>
